<svg xmlns="http://www.w3.org/2000/svg" xmlns:xlink="http://www.w3.org/1999/xlink" width="500" zoomAndPan="magnify" viewBox="0 0 375 374.999991" height="500" preserveAspectRatio="xMidYMid meet" version="1.0"><defs><g/></defs><rect x="-37.5" width="450" fill="#ffffff" y="-37.499999" height="449.999989" fill-opacity="1"/><rect x="-37.5" width="450" fill="#ffffff" y="-37.499999" height="449.999989" fill-opacity="1"/><rect x="-37.5" width="450" fill="#ffffff" y="-37.499999" height="449.999989" fill-opacity="1"/><rect x="-37.5" width="450" fill="#ffffff" y="-37.499999" height="449.999989" fill-opacity="1"/><g fill="#ff914d" fill-opacity="1"><g transform="translate(142.045343, 217.885109)"><g><path d="M 0.398438 -16.347656 L 0.398438 -15.601562 L 6.679688 0.046875 L 9.574219 0.046875 L 15.882812 -15.765625 L 15.882812 -16.347656 L 11.816406 -16.347656 L 9.109375 -9.527344 L 8.152344 -6.375 L 7.191406 -9.527344 L 4.484375 -16.347656 Z M 0.398438 -16.347656 "/></g></g></g><g fill="#ff914d" fill-opacity="1"><g transform="translate(157.98916, 217.885109)"><g><path d="M 0.515625 -15.414062 C 0.515625 -14.035156 1.636719 -13.359375 2.757812 -13.359375 C 3.832031 -13.359375 4.929688 -14.035156 4.929688 -15.414062 C 4.929688 -16.863281 3.808594 -17.5625 2.6875 -17.5625 C 1.613281 -17.5625 0.515625 -16.839844 0.515625 -15.414062 Z M 0.863281 -12.636719 L 4.601562 -12.636719 L 4.601562 0 L 0.863281 0 Z M 0.863281 -12.636719 "/></g></g></g><g fill="#ff914d" fill-opacity="1"><g transform="translate(164.245301, 217.885109)"><g><path d="M 13.359375 -6.351562 C 13.359375 -10.671875 10.089844 -12.820312 6.84375 -12.820312 C 3.550781 -12.820312 0.304688 -10.671875 0.304688 -6.351562 C 0.304688 -2.03125 3.550781 0.140625 6.820312 0.140625 C 9.433594 0.140625 12.027344 -1.238281 12.984375 -3.992188 L 8.992188 -3.992188 C 8.453125 -3.410156 7.683594 -3.128906 6.867188 -3.128906 C 5.746094 -3.152344 4.601562 -3.738281 4.15625 -4.90625 L 13.21875 -4.90625 C 13.3125 -5.371094 13.359375 -5.839844 13.359375 -6.351562 Z M 9.34375 -7.777344 L 4.296875 -7.777344 C 4.671875 -9.015625 5.675781 -9.621094 6.773438 -9.621094 C 7.964844 -9.621094 8.992188 -9.039062 9.34375 -7.777344 Z M 9.34375 -7.777344 "/></g></g></g><g fill="#ff914d" fill-opacity="1"><g transform="translate(179.185333, 217.885109)"><g><path d="M 8.40625 0.0234375 L 8.292969 -3.011719 C 7.964844 -2.941406 7.589844 -2.894531 7.238281 -2.894531 C 6.351562 -2.894531 5.535156 -3.246094 5.535156 -4.367188 L 5.535156 -9.34375 L 8.175781 -9.34375 L 8.175781 -12.496094 L 5.535156 -12.496094 L 5.535156 -15.226562 L 1.867188 -14.902344 L 1.867188 -12.496094 L 0.210938 -12.496094 L 0.210938 -9.34375 L 1.867188 -9.34375 L 1.867188 -4.367188 C 1.867188 -1.097656 3.550781 0.210938 6.328125 0.210938 C 6.960938 0.210938 7.660156 0.140625 8.40625 0.0234375 Z M 8.40625 0.0234375 "/></g></g></g><g fill="#ff914d" fill-opacity="1"><g transform="translate(188.873008, 217.885109)"><g/></g></g><g fill="#ff914d" fill-opacity="1"><g transform="translate(194.732302, 217.885109)"><g><path d="M 9.902344 -16.347656 L 9.902344 -8.175781 L 4.25 -16.347656 L 1.167969 -16.347656 L 1.167969 0 L 5.136719 0 L 5.136719 -7.964844 L 10.71875 0 L 13.847656 0 L 13.847656 -16.347656 Z M 9.902344 -16.347656 "/></g></g></g><g fill="#ff914d" fill-opacity="1"><g transform="translate(209.812398, 217.885109)"><g><path d="M 6.445312 -12.84375 C 2.335938 -12.84375 0.328125 -9.949219 0.328125 -6.492188 C 0.328125 -3.011719 2.40625 0.164062 6.398438 0.164062 C 7.613281 0.164062 8.851562 -0.1875 9.714844 -1.261719 L 9.714844 0 L 13.382812 0 L 13.382812 -12.636719 L 9.714844 -12.636719 L 9.714844 -11.328125 C 8.898438 -12.378906 7.683594 -12.84375 6.445312 -12.84375 Z M 6.84375 -3.363281 C 4.976562 -3.363281 4.015625 -4.882812 4.015625 -6.398438 C 4.015625 -7.941406 4.953125 -9.457031 6.84375 -9.457031 C 8.429688 -9.457031 9.714844 -8.082031 9.714844 -6.398438 C 9.714844 -4.71875 8.429688 -3.363281 6.84375 -3.363281 Z M 6.84375 -3.363281 "/></g></g></g><g fill="#ff914d" fill-opacity="1"><g transform="translate(224.822456, 217.885109)"><g><path d="M 4.554688 -11.375 L 4.554688 -12.636719 L 0.839844 -12.636719 L 0.839844 0 L 4.742188 0 L 4.742188 -7.148438 C 4.742188 -8.546875 5.886719 -9.203125 6.796875 -9.203125 C 7.660156 -9.203125 8.40625 -8.640625 8.40625 -7.101562 L 8.40625 0 L 12.121094 0 L 12.121094 -7.191406 C 12.144531 -8.570312 13.453125 -9.203125 14.363281 -9.203125 C 15.226562 -9.203125 15.976562 -8.640625 15.976562 -7.101562 L 15.976562 0 L 19.6875 0 L 19.6875 -7.125 C 19.734375 -11.257812 17.679688 -12.796875 15.179688 -12.796875 C 13.757812 -12.796875 12.074219 -12.261719 11.257812 -11.140625 C 10.648438 -12.121094 9.691406 -12.820312 8.175781 -12.820312 C 6.84375 -12.820312 5.417969 -12.472656 4.554688 -11.375 Z M 4.554688 -11.375 "/></g></g></g><g fill="#ff914d" fill-opacity="1"><g transform="translate(246.154712, 217.885109)"><g/></g></g><g fill="#ff914d" fill-opacity="1"><g transform="translate(81.951597, 250.135107)"><g><path d="M 4.789062 -8.152344 C 4.789062 -11.257812 7.03125 -12.796875 9.273438 -12.796875 C 11.140625 -12.796875 13.03125 -11.722656 13.570312 -9.550781 L 17.609375 -9.550781 C 17.097656 -13.757812 13.476562 -16.605469 9.273438 -16.605469 C 4.601562 -16.605469 0.816406 -12.960938 0.816406 -8.152344 C 0.816406 -3.339844 4.601562 0.234375 9.273438 0.234375 C 13.523438 0.234375 17.027344 -2.59375 17.632812 -6.867188 L 13.59375 -6.867188 C 13.078125 -4.648438 11.1875 -3.527344 9.273438 -3.527344 C 7.03125 -3.527344 4.789062 -5.066406 4.789062 -8.152344 Z M 4.789062 -8.152344 "/></g></g></g><g fill="#ff914d" fill-opacity="1"><g transform="translate(100.323163, 250.135107)"><g><path d="M 13.570312 -6.304688 C 13.570312 -10.8125 10.207031 -13.054688 6.84375 -13.054688 C 3.457031 -13.054688 0.09375 -10.8125 0.09375 -6.304688 C 0.09375 -1.820312 3.480469 0.421875 6.84375 0.421875 C 10.207031 0.421875 13.570312 -1.820312 13.570312 -6.304688 Z M 3.785156 -6.304688 C 3.785156 -8.453125 5.300781 -9.527344 6.84375 -9.527344 C 8.523438 -9.527344 9.878906 -8.453125 9.878906 -6.304688 C 9.878906 -4.179688 8.359375 -3.128906 6.84375 -3.128906 C 5.300781 -3.128906 3.785156 -4.179688 3.785156 -6.304688 Z M 3.785156 -6.304688 "/></g></g></g><g fill="#ff914d" fill-opacity="1"><g transform="translate(115.099785, 250.135107)"><g><path d="M 4.554688 -11.375 L 4.554688 -12.636719 L 0.839844 -12.636719 L 0.839844 0 L 4.742188 0 L 4.742188 -7.148438 C 4.742188 -8.546875 5.886719 -9.203125 6.796875 -9.203125 C 7.660156 -9.203125 8.40625 -8.640625 8.40625 -7.101562 L 8.40625 0 L 12.121094 0 L 12.121094 -7.191406 C 12.144531 -8.570312 13.453125 -9.203125 14.363281 -9.203125 C 15.226562 -9.203125 15.976562 -8.640625 15.976562 -7.101562 L 15.976562 0 L 19.6875 0 L 19.6875 -7.125 C 19.734375 -11.257812 17.679688 -12.796875 15.179688 -12.796875 C 13.757812 -12.796875 12.074219 -12.261719 11.257812 -11.140625 C 10.648438 -12.121094 9.691406 -12.820312 8.175781 -12.820312 C 6.84375 -12.820312 5.417969 -12.472656 4.554688 -11.375 Z M 4.554688 -11.375 "/></g></g></g><g fill="#ff914d" fill-opacity="1"><g transform="translate(136.436022, 250.135107)"><g><path d="M 4.554688 -11.375 L 4.554688 -12.636719 L 0.839844 -12.636719 L 0.839844 0 L 4.742188 0 L 4.742188 -7.148438 C 4.742188 -8.546875 5.886719 -9.203125 6.796875 -9.203125 C 7.660156 -9.203125 8.40625 -8.640625 8.40625 -7.101562 L 8.40625 0 L 12.121094 0 L 12.121094 -7.191406 C 12.144531 -8.570312 13.453125 -9.203125 14.363281 -9.203125 C 15.226562 -9.203125 15.976562 -8.640625 15.976562 -7.101562 L 15.976562 0 L 19.6875 0 L 19.6875 -7.125 C 19.734375 -11.257812 17.679688 -12.796875 15.179688 -12.796875 C 13.757812 -12.796875 12.074219 -12.261719 11.257812 -11.140625 C 10.648438 -12.121094 9.691406 -12.820312 8.175781 -12.820312 C 6.84375 -12.820312 5.417969 -12.472656 4.554688 -11.375 Z M 4.554688 -11.375 "/></g></g></g><g fill="#ff914d" fill-opacity="1"><g transform="translate(157.772259, 250.135107)"><g><path d="M 13.570312 -6.304688 C 13.570312 -10.8125 10.207031 -13.054688 6.84375 -13.054688 C 3.457031 -13.054688 0.09375 -10.8125 0.09375 -6.304688 C 0.09375 -1.820312 3.480469 0.421875 6.84375 0.421875 C 10.207031 0.421875 13.570312 -1.820312 13.570312 -6.304688 Z M 3.785156 -6.304688 C 3.785156 -8.453125 5.300781 -9.527344 6.84375 -9.527344 C 8.523438 -9.527344 9.878906 -8.453125 9.878906 -6.304688 C 9.878906 -4.179688 8.359375 -3.128906 6.84375 -3.128906 C 5.300781 -3.128906 3.785156 -4.179688 3.785156 -6.304688 Z M 3.785156 -6.304688 "/></g></g></g><g fill="#ff914d" fill-opacity="1"><g transform="translate(172.548881, 250.135107)"><g><path d="M 6.445312 -12.84375 C 2.335938 -12.84375 0.328125 -9.949219 0.328125 -6.492188 C 0.328125 -3.011719 2.40625 0.164062 6.398438 0.164062 C 7.613281 0.164062 8.851562 -0.1875 9.714844 -1.261719 L 9.714844 0 L 13.382812 0 L 13.382812 -16.464844 L 9.714844 -16.464844 L 9.714844 -11.492188 C 8.875 -12.449219 7.683594 -12.84375 6.445312 -12.84375 Z M 6.84375 -3.363281 C 4.976562 -3.363281 4.015625 -4.882812 4.015625 -6.398438 C 4.015625 -7.941406 4.953125 -9.457031 6.84375 -9.457031 C 8.429688 -9.457031 9.714844 -8.082031 9.714844 -6.398438 C 9.714844 -4.71875 8.429688 -3.363281 6.84375 -3.363281 Z M 6.84375 -3.363281 "/></g></g></g><g fill="#ff914d" fill-opacity="1"><g transform="translate(187.558939, 250.135107)"><g><path d="M 0.515625 -15.414062 C 0.515625 -14.035156 1.636719 -13.359375 2.757812 -13.359375 C 3.832031 -13.359375 4.929688 -14.035156 4.929688 -15.414062 C 4.929688 -16.863281 3.808594 -17.5625 2.6875 -17.5625 C 1.613281 -17.5625 0.515625 -16.839844 0.515625 -15.414062 Z M 0.863281 -12.636719 L 4.601562 -12.636719 L 4.601562 0 L 0.863281 0 Z M 0.863281 -12.636719 "/></g></g></g><g fill="#ff914d" fill-opacity="1"><g transform="translate(193.81508, 250.135107)"><g><path d="M 8.40625 0.0234375 L 8.292969 -3.011719 C 7.964844 -2.941406 7.589844 -2.894531 7.238281 -2.894531 C 6.351562 -2.894531 5.535156 -3.246094 5.535156 -4.367188 L 5.535156 -9.34375 L 8.175781 -9.34375 L 8.175781 -12.496094 L 5.535156 -12.496094 L 5.535156 -15.226562 L 1.867188 -14.902344 L 1.867188 -12.496094 L 0.210938 -12.496094 L 0.210938 -9.34375 L 1.867188 -9.34375 L 1.867188 -4.367188 C 1.867188 -1.097656 3.550781 0.210938 6.328125 0.210938 C 6.960938 0.210938 7.660156 0.140625 8.40625 0.0234375 Z M 8.40625 0.0234375 "/></g></g></g><g fill="#ff914d" fill-opacity="1"><g transform="translate(203.502755, 250.135107)"><g><path d="M 12.449219 -12.050781 L 12.449219 -12.636719 L 8.640625 -12.636719 L 7.078125 -8.59375 L 6.140625 -5.394531 L 5.253906 -8.59375 L 3.691406 -12.636719 L -0.140625 -12.636719 L -0.140625 -12.050781 L 4.0625 -1.027344 L 2.429688 3.128906 L 2.429688 3.691406 L 6.234375 3.691406 C 8.292969 -1.566406 10.371094 -6.796875 12.449219 -12.050781 Z M 12.449219 -12.050781 "/></g></g></g><g fill="#ff914d" fill-opacity="1"><g transform="translate(216.925438, 250.135107)"><g/></g></g><g fill="#ff914d" fill-opacity="1"><g transform="translate(222.784733, 250.135107)"><g><path d="M 11.746094 -12.683594 L 11.746094 -16.488281 L 1.167969 -16.488281 L 1.167969 0 L 5.136719 0 L 5.136719 -5.910156 L 11.375 -5.910156 L 11.375 -9.621094 L 5.136719 -9.621094 L 5.136719 -12.683594 Z M 11.746094 -12.683594 "/></g></g></g><g fill="#ff914d" fill-opacity="1"><g transform="translate(235.553786, 250.135107)"><g><path d="M 8.757812 -1.285156 L 8.757812 0 L 12.472656 0 L 12.472656 -12.636719 L 8.570312 -12.636719 L 8.570312 -5.769531 C 8.570312 -4.085938 7.425781 -3.152344 6.328125 -3.152344 C 5.324219 -3.152344 4.34375 -3.945312 4.34375 -5.699219 L 4.34375 -12.636719 L 0.628906 -12.636719 L 0.628906 -5.675781 C 0.605469 -2.5 1.613281 0.164062 5.324219 0.164062 C 6.632812 0.164062 7.894531 -0.1875 8.757812 -1.285156 Z M 8.757812 -1.285156 "/></g></g></g><g fill="#ff914d" fill-opacity="1"><g transform="translate(249.653444, 250.135107)"><g><path d="M 8.40625 0.0234375 L 8.292969 -3.011719 C 7.964844 -2.941406 7.589844 -2.894531 7.238281 -2.894531 C 6.351562 -2.894531 5.535156 -3.246094 5.535156 -4.367188 L 5.535156 -9.34375 L 8.175781 -9.34375 L 8.175781 -12.496094 L 5.535156 -12.496094 L 5.535156 -15.226562 L 1.867188 -14.902344 L 1.867188 -12.496094 L 0.210938 -12.496094 L 0.210938 -9.34375 L 1.867188 -9.34375 L 1.867188 -4.367188 C 1.867188 -1.097656 3.550781 0.210938 6.328125 0.210938 C 6.960938 0.210938 7.660156 0.140625 8.40625 0.0234375 Z M 8.40625 0.0234375 "/></g></g></g><g fill="#ff914d" fill-opacity="1"><g transform="translate(259.341119, 250.135107)"><g><path d="M 8.757812 -1.285156 L 8.757812 0 L 12.472656 0 L 12.472656 -12.636719 L 8.570312 -12.636719 L 8.570312 -5.769531 C 8.570312 -4.085938 7.425781 -3.152344 6.328125 -3.152344 C 5.324219 -3.152344 4.34375 -3.945312 4.34375 -5.699219 L 4.34375 -12.636719 L 0.628906 -12.636719 L 0.628906 -5.675781 C 0.605469 -2.5 1.613281 0.164062 5.324219 0.164062 C 6.632812 0.164062 7.894531 -0.1875 8.757812 -1.285156 Z M 8.757812 -1.285156 "/></g></g></g><g fill="#ff914d" fill-opacity="1"><g transform="translate(273.440777, 250.135107)"><g><path d="M 4.15625 -11.792969 L 4.015625 -12.636719 L 0.699219 -12.636719 L 0.699219 0 L 4.367188 0 L 4.367188 -7.007812 C 4.367188 -8.710938 5.722656 -9.410156 7.054688 -9.433594 C 7.472656 -9.433594 7.917969 -9.367188 8.292969 -9.25 L 8.335938 -12.707031 C 7.847656 -12.820312 7.355469 -12.890625 6.914062 -12.890625 C 5.886719 -12.890625 4.976562 -12.566406 4.15625 -11.792969 Z M 4.15625 -11.792969 "/></g></g></g><g fill="#ff914d" fill-opacity="1"><g transform="translate(283.011733, 250.135107)"><g><path d="M 13.359375 -6.351562 C 13.359375 -10.671875 10.089844 -12.820312 6.84375 -12.820312 C 3.550781 -12.820312 0.304688 -10.671875 0.304688 -6.351562 C 0.304688 -2.03125 3.550781 0.140625 6.820312 0.140625 C 9.433594 0.140625 12.027344 -1.238281 12.984375 -3.992188 L 8.992188 -3.992188 C 8.453125 -3.410156 7.683594 -3.128906 6.867188 -3.128906 C 5.746094 -3.152344 4.601562 -3.738281 4.15625 -4.90625 L 13.21875 -4.90625 C 13.3125 -5.371094 13.359375 -5.839844 13.359375 -6.351562 Z M 9.34375 -7.777344 L 4.296875 -7.777344 C 4.671875 -9.015625 5.675781 -9.621094 6.773438 -9.621094 C 7.964844 -9.621094 8.992188 -9.039062 9.34375 -7.777344 Z M 9.34375 -7.777344 "/></g></g></g><g fill="#004aad" fill-opacity="1"><g transform="translate(297.951583, 250.135107)"><g><path d="M 7.636719 -16.441406 L 7.636719 -17.960938 L 4.8125 -17.960938 L 4.8125 -16.464844 C 1.984375 -15.953125 -0.1875 -13.917969 -0.0234375 -10.835938 L -0.0234375 -10.859375 C 0.234375 -7.660156 2.5 -6.773438 4.8125 -6.398438 L 4.8125 -3.945312 C 4.296875 -4.226562 3.898438 -4.695312 3.898438 -5.582031 L -0.140625 -5.582031 C -0.140625 -2.078125 2.40625 -0.375 4.8125 0.0703125 L 4.8125 1.472656 L 7.636719 1.472656 L 7.636719 0.046875 C 10.230469 -0.445312 12.566406 -2.289062 12.566406 -5.160156 C 12.566406 -5.511719 12.519531 -5.933594 12.449219 -6.304688 C 11.839844 -8.78125 9.691406 -9.597656 7.636719 -9.972656 L 7.636719 -12.449219 C 8.035156 -12.167969 8.269531 -11.746094 8.269531 -11.1875 L 12.285156 -11.1875 C 12.285156 -14.339844 10.066406 -16 7.636719 -16.441406 Z M 3.96875 -11.445312 C 3.96875 -12.003906 4.296875 -12.449219 4.835938 -12.707031 L 4.835938 -10.347656 C 4.34375 -10.53125 3.96875 -10.859375 3.96875 -11.445312 Z M 8.59375 -4.976562 C 8.59375 -4.367188 8.199219 -3.945312 7.566406 -3.714844 L 7.566406 -6.140625 C 8.128906 -5.957031 8.59375 -5.605469 8.59375 -4.976562 Z M 8.59375 -4.976562 "/></g></g></g><g fill="#004aad" fill-opacity="1"><g transform="translate(77.913082, 168.898789)"><g><path d="M 1.300781 -53.539062 L 1.300781 -51.09375 L 21.875 0.152344 L 31.359375 0.152344 L 52.011719 -51.628906 L 52.011719 -53.539062 L 38.703125 -53.539062 L 29.828125 -31.207031 L 26.691406 -20.878906 L 23.558594 -31.207031 L 14.683594 -53.539062 Z M 1.300781 -53.539062 "/></g></g></g><g fill="#004aad" fill-opacity="1"><g transform="translate(130.14658, 168.898789)"><g><path d="M 32.429688 -53.539062 L 32.429688 -26.769531 L 13.921875 -53.539062 L 3.824219 -53.539062 L 3.824219 0 L 16.828125 0 L 16.828125 -26.082031 L 35.105469 0 L 45.355469 0 L 45.355469 -53.539062 Z M 32.429688 -53.539062 "/></g></g></g><g fill="#004aad" fill-opacity="1"><g transform="translate(179.550446, 168.898789)"><g/></g></g><g fill="#004aad" fill-opacity="1"><g transform="translate(198.746067, 168.898789)"><g><path d="M 15.679688 -26.691406 C 15.679688 -36.867188 23.023438 -41.914062 30.363281 -41.914062 C 36.484375 -41.914062 42.679688 -38.394531 44.4375 -31.28125 L 57.667969 -31.28125 C 55.988281 -45.050781 44.132812 -54.378906 30.363281 -54.378906 C 15.066406 -54.378906 2.675781 -42.449219 2.675781 -26.691406 C 2.675781 -10.9375 15.066406 0.765625 30.363281 0.765625 C 44.285156 0.765625 55.757812 -8.488281 57.746094 -22.488281 L 44.515625 -22.488281 C 42.832031 -15.21875 36.636719 -11.550781 30.363281 -11.550781 C 23.023438 -11.550781 15.679688 -16.597656 15.679688 -26.691406 Z M 15.679688 -26.691406 "/></g></g></g><g fill="#004aad" fill-opacity="1"><g transform="translate(258.933128, 168.898789)"><g><path d="M 38.472656 -41.53125 L 38.472656 -54 L 3.824219 -54 L 3.824219 0 L 16.828125 0 L 16.828125 -19.351562 L 37.25 -19.351562 L 37.25 -31.511719 L 16.828125 -31.511719 L 16.828125 -41.53125 Z M 38.472656 -41.53125 "/></g></g></g><g fill="#000000" fill-opacity="1"><g transform="translate(145.208996, 297.413272)"><g><path d="M 8.21875 0 L 6.359375 -5.6875 C 6.234375 -6.070312 6.078125 -6.632812 5.890625 -7.375 L 5.84375 -7.375 L 5.6875 -6.796875 L 5.328125 -5.671875 L 3.4375 0 L 2.671875 0 L 0.25 -8.5 L 1.078125 -8.5 L 2.4375 -3.578125 C 2.75 -2.359375 2.957031 -1.460938 3.0625 -0.890625 L 3.109375 -0.890625 C 3.410156 -2.109375 3.632812 -2.914062 3.78125 -3.3125 L 5.53125 -8.5 L 6.234375 -8.5 L 7.890625 -3.328125 C 8.265625 -2.109375 8.492188 -1.300781 8.578125 -0.90625 L 8.625 -0.90625 C 8.664062 -1.238281 8.875 -2.144531 9.25 -3.625 L 10.546875 -8.5 L 11.328125 -8.5 L 9.03125 0 Z M 8.21875 0 "/></g></g></g><g fill="#000000" fill-opacity="1"><g transform="translate(156.776489, 297.413272)"><g><path d="M 8.21875 0 L 6.359375 -5.6875 C 6.234375 -6.070312 6.078125 -6.632812 5.890625 -7.375 L 5.84375 -7.375 L 5.6875 -6.796875 L 5.328125 -5.671875 L 3.4375 0 L 2.671875 0 L 0.25 -8.5 L 1.078125 -8.5 L 2.4375 -3.578125 C 2.75 -2.359375 2.957031 -1.460938 3.0625 -0.890625 L 3.109375 -0.890625 C 3.410156 -2.109375 3.632812 -2.914062 3.78125 -3.3125 L 5.53125 -8.5 L 6.234375 -8.5 L 7.890625 -3.328125 C 8.265625 -2.109375 8.492188 -1.300781 8.578125 -0.90625 L 8.625 -0.90625 C 8.664062 -1.238281 8.875 -2.144531 9.25 -3.625 L 10.546875 -8.5 L 11.328125 -8.5 L 9.03125 0 Z M 8.21875 0 "/></g></g></g><g fill="#000000" fill-opacity="1"><g transform="translate(168.343982, 297.413272)"><g><path d="M 8.21875 0 L 6.359375 -5.6875 C 6.234375 -6.070312 6.078125 -6.632812 5.890625 -7.375 L 5.84375 -7.375 L 5.6875 -6.796875 L 5.328125 -5.671875 L 3.4375 0 L 2.671875 0 L 0.25 -8.5 L 1.078125 -8.5 L 2.4375 -3.578125 C 2.75 -2.359375 2.957031 -1.460938 3.0625 -0.890625 L 3.109375 -0.890625 C 3.410156 -2.109375 3.632812 -2.914062 3.78125 -3.3125 L 5.53125 -8.5 L 6.234375 -8.5 L 7.890625 -3.328125 C 8.265625 -2.109375 8.492188 -1.300781 8.578125 -0.90625 L 8.625 -0.90625 C 8.664062 -1.238281 8.875 -2.144531 9.25 -3.625 L 10.546875 -8.5 L 11.328125 -8.5 L 9.03125 0 Z M 8.21875 0 "/></g></g></g><g fill="#000000" fill-opacity="1"><g transform="translate(179.911475, 297.413272)"><g><path d="M 1.265625 -0.609375 C 1.265625 -1.117188 1.472656 -1.375 1.890625 -1.375 C 2.316406 -1.375 2.53125 -1.117188 2.53125 -0.609375 C 2.53125 -0.0976562 2.316406 0.15625 1.890625 0.15625 C 1.472656 0.15625 1.265625 -0.0976562 1.265625 -0.609375 Z M 1.265625 -0.609375 "/></g></g></g><g fill="#000000" fill-opacity="1"><g transform="translate(183.715239, 297.413272)"><g><path d="M 3.28125 0 L 0 -8.5 L 0.796875 -8.5 L 3 -2.71875 C 3.289062 -1.976562 3.507812 -1.332031 3.65625 -0.78125 L 3.703125 -0.78125 C 3.910156 -1.488281 4.128906 -2.140625 4.359375 -2.734375 L 6.546875 -8.5 L 7.34375 -8.5 L 4.0625 0 Z M 3.28125 0 "/></g></g></g><g fill="#000000" fill-opacity="1"><g transform="translate(191.057195, 297.413272)"><g><path d="M 7.34375 0 L 7.34375 -5.515625 C 7.34375 -6.367188 7.160156 -6.988281 6.796875 -7.375 C 6.441406 -7.757812 5.890625 -7.953125 5.140625 -7.953125 C 4.117188 -7.953125 3.375 -7.695312 2.90625 -7.1875 C 2.4375 -6.675781 2.203125 -5.84375 2.203125 -4.6875 L 2.203125 0 L 1.421875 0 L 1.421875 -8.5 L 2.078125 -8.5 L 2.234375 -7.328125 L 2.28125 -7.328125 C 2.832031 -8.210938 3.8125 -8.65625 5.21875 -8.65625 C 7.144531 -8.65625 8.109375 -7.625 8.109375 -5.5625 L 8.109375 0 Z M 7.34375 0 "/></g></g></g><g fill="#000000" fill-opacity="1"><g transform="translate(200.49239, 297.413272)"><g><path d="M 4.8125 0.15625 C 3.601562 0.15625 2.65625 -0.222656 1.96875 -0.984375 C 1.28125 -1.753906 0.9375 -2.828125 0.9375 -4.203125 C 0.9375 -5.609375 1.289062 -6.703125 2 -7.484375 C 2.71875 -8.265625 3.695312 -8.65625 4.9375 -8.65625 C 5.664062 -8.65625 6.367188 -8.53125 7.046875 -8.28125 L 6.828125 -7.59375 C 6.097656 -7.832031 5.460938 -7.953125 4.921875 -7.953125 C 3.878906 -7.953125 3.085938 -7.628906 2.546875 -6.984375 C 2.015625 -6.347656 1.75 -5.425781 1.75 -4.21875 C 1.75 -3.070312 2.015625 -2.171875 2.546875 -1.515625 C 3.085938 -0.867188 3.835938 -0.546875 4.796875 -0.546875 C 5.566406 -0.546875 6.285156 -0.6875 6.953125 -0.96875 L 6.953125 -0.25 C 6.410156 0.0195312 5.695312 0.15625 4.8125 0.15625 Z M 4.8125 0.15625 "/></g></g></g><g fill="#000000" fill-opacity="1"><g transform="translate(208.092102, 297.413272)"><g><path d="M 4.578125 -7.828125 L 2.578125 -7.828125 L 2.578125 0 L 1.8125 0 L 1.8125 -7.828125 L 0.234375 -7.828125 L 0.234375 -8.28125 L 1.8125 -8.5625 L 1.8125 -9.21875 C 1.8125 -10.257812 2 -11.023438 2.375 -11.515625 C 2.757812 -12.003906 3.390625 -12.25 4.265625 -12.25 C 4.734375 -12.25 5.203125 -12.175781 5.671875 -12.03125 L 5.484375 -11.359375 C 5.066406 -11.492188 4.65625 -11.5625 4.25 -11.5625 C 3.644531 -11.5625 3.210938 -11.378906 2.953125 -11.015625 C 2.703125 -10.660156 2.578125 -10.082031 2.578125 -9.28125 L 2.578125 -8.5 L 4.578125 -8.5 Z M 4.578125 -7.828125 "/></g></g></g><g fill="#000000" fill-opacity="1"><g transform="translate(212.887806, 297.413272)"><g><path d="M 1.265625 -0.609375 C 1.265625 -1.117188 1.472656 -1.375 1.890625 -1.375 C 2.316406 -1.375 2.53125 -1.117188 2.53125 -0.609375 C 2.53125 -0.0976562 2.316406 0.15625 1.890625 0.15625 C 1.472656 0.15625 1.265625 -0.0976562 1.265625 -0.609375 Z M 1.265625 -0.609375 "/></g></g></g><g fill="#000000" fill-opacity="1"><g transform="translate(216.69157, 297.413272)"><g><path d="M 3.28125 0 L 0 -8.5 L 0.796875 -8.5 L 3 -2.71875 C 3.289062 -1.976562 3.507812 -1.332031 3.65625 -0.78125 L 3.703125 -0.78125 C 3.910156 -1.488281 4.128906 -2.140625 4.359375 -2.734375 L 6.546875 -8.5 L 7.34375 -8.5 L 4.0625 0 Z M 3.28125 0 "/></g></g></g><g fill="#000000" fill-opacity="1"><g transform="translate(224.033527, 297.413272)"><g><path d="M 7.34375 0 L 7.34375 -5.515625 C 7.34375 -6.367188 7.160156 -6.988281 6.796875 -7.375 C 6.441406 -7.757812 5.890625 -7.953125 5.140625 -7.953125 C 4.117188 -7.953125 3.375 -7.695312 2.90625 -7.1875 C 2.4375 -6.675781 2.203125 -5.84375 2.203125 -4.6875 L 2.203125 0 L 1.421875 0 L 1.421875 -8.5 L 2.078125 -8.5 L 2.234375 -7.328125 L 2.28125 -7.328125 C 2.832031 -8.210938 3.8125 -8.65625 5.21875 -8.65625 C 7.144531 -8.65625 8.109375 -7.625 8.109375 -5.5625 L 8.109375 0 Z M 7.34375 0 "/></g></g></g><g fill="#ff914d" fill-opacity="1"><g transform="translate(301.895639, 166.338491)"><g><path d="M 11.058594 -23.808594 L 11.058594 -26.007812 L 6.96875 -26.007812 L 6.96875 -23.84375 C 2.875 -23.097656 -0.269531 -20.15625 -0.0351562 -15.691406 L -0.0351562 -15.726562 C 0.339844 -11.09375 3.617188 -9.808594 6.96875 -9.265625 L 6.96875 -5.714844 C 6.222656 -6.121094 5.648438 -6.796875 5.648438 -8.082031 L -0.203125 -8.082031 C -0.203125 -3.011719 3.484375 -0.542969 6.96875 0.101562 L 6.96875 2.128906 L 11.058594 2.128906 L 11.058594 0.0664062 C 14.8125 -0.644531 18.195312 -3.3125 18.195312 -7.472656 C 18.195312 -7.980469 18.128906 -8.589844 18.027344 -9.132812 C 17.148438 -12.714844 14.035156 -13.898438 11.058594 -14.441406 L 11.058594 -18.027344 C 11.632812 -17.621094 11.972656 -17.011719 11.972656 -16.199219 L 17.789062 -16.199219 C 17.789062 -20.765625 14.578125 -23.167969 11.058594 -23.808594 Z M 5.75 -16.570312 C 5.75 -17.382812 6.222656 -18.027344 7 -18.398438 L 7 -14.980469 C 6.289062 -15.253906 5.75 -15.726562 5.75 -16.570312 Z M 12.445312 -7.203125 C 12.445312 -6.324219 11.871094 -5.714844 10.957031 -5.378906 L 10.957031 -8.894531 C 11.769531 -8.625 12.445312 -8.117188 12.445312 -7.203125 Z M 12.445312 -7.203125 "/></g></g></g></svg>